<?xml version="1.0" encoding="utf-8"?>
<!-- Generator: Adobe Illustrator 16.0.3, SVG Export Plug-In . SVG Version: 6.00 Build 0)  -->
<!DOCTYPE svg PUBLIC "-//W3C//DTD SVG 1.1//EN" "http://www.w3.org/Graphics/SVG/1.1/DTD/svg11.dtd">
<svg version="1.1" id="Capa_1" xmlns="http://www.w3.org/2000/svg" xmlns:xlink="http://www.w3.org/1999/xlink" x="0px" y="0px"
	 width="50px" height="50px" viewBox="0 0 50 50" enable-background="new 0 0 50 50" xml:space="preserve">
<g>
	<path fill="#FFFFFF" d="M25.018,0C16.184,0,8.997,7.186,8.997,16.02c0,4.284,1.681,8.313,4.732,11.344
		c0.096,0.099,0.241,0.431,0.247,0.614c0.052,1.329,0.422,4.38,2.573,6.766c-0.115,0.167-0.218,0.342-0.297,0.536
		c-0.362,0.886-0.273,1.872,0.183,2.643c-0.337,0.88-0.237,1.851,0.199,2.588c-0.001,0.004-0.002,0.009-0.003,0.011
		c-0.525,1.294-0.096,2.802,0.99,3.5c0.058,0.039,0.884,0.568,2.296,1.075c-0.016,0.198-0.11,1.98,1.183,3.394
		c0.921,1.006,2.256,1.528,3.968,1.554c0.039,0,0.076,0.002,0.115,0.002c1.645-0.002,2.926-0.492,3.809-1.467
		c1.254-1.387,1.148-3.156,1.116-3.482c1.332-0.478,2.153-0.977,2.295-1.071c1.099-0.706,1.527-2.217,0.995-3.506
		c-0.001-0.005-0.003-0.009-0.005-0.013c0.443-0.744,0.54-1.706,0.205-2.575c0.453-0.763,0.545-1.76,0.183-2.658
		c-0.074-0.175-0.168-0.336-0.271-0.488c2.13-2.392,2.507-5.464,2.56-6.805c0.007-0.18,0.159-0.523,0.255-0.62
		c3.037-3.04,4.711-7.067,4.711-11.341C41.036,7.186,33.85,0,25.018,0z M26.978,46.751c-0.358,0.396-1.009,0.59-1.873,0.577
		c-0.92-0.013-1.588-0.234-1.984-0.657c-0.251-0.268-0.374-0.596-0.434-0.863c0.436,0.072,0.896,0.128,1.379,0.165
		c0.467,0.035,0.838,0.041,0.914,0.043c0.012,0,0.025,0,0.037,0s0.025,0,0.037,0c0.076-0.002,0.448-0.008,0.915-0.043
		c0.497-0.039,0.967-0.099,1.415-0.171C27.342,46.09,27.239,46.465,26.978,46.751z M31.021,39.131
		c-0.353,0.203-0.618,0.587-0.683,0.988c-0.111,0.685,0.296,1.142,0.547,1.428c0.037,0.091-0.015,0.213,0.045,0.198
		c-0.02,0.012-2.025,1.279-5.169,1.517c-0.363,0.028-0.657,0.037-0.745,0.037c-0.087-0.003-0.381-0.011-0.744-0.037
		c-3.104-0.235-5.094-1.472-5.115-1.472c0,0,0,0-0.001,0c-0.022-0.035-0.045-0.154,0.042-0.303c0.197-0.221,0.608-0.682,0.499-1.368
		c-0.063-0.403-0.329-0.787-0.682-0.988l-0.031-0.003c-0.022-0.034-0.045-0.15,0.02-0.284c0.195-0.245,0.56-0.7,0.438-1.357
		c-0.05-0.268-0.185-0.521-0.376-0.719c1.057,0.494,3.04,1.218,5.651,1.257h0.614c1.081-0.017,2.048-0.155,2.892-0.34
		c0.153-0.031,0.302-0.068,0.448-0.104c0.282-0.072,0.544-0.146,0.787-0.227c0.172-0.054,0.346-0.109,0.509-0.173
		c0.387-0.141,0.718-0.278,0.986-0.404c-0.188,0.196-0.32,0.445-0.367,0.709c-0.121,0.653,0.234,1.101,0.466,1.403
		c0.037,0.086,0.02,0.193,0.045,0.193l0,0L31.021,39.131z M34.406,25.439c-0.584,0.581-1.016,1.583-1.05,2.432
		c-0.089,2.229-0.898,5.676-4.823,6.925c-0.047,0.015-0.091,0.028-0.14,0.041c-0.909,0.274-1.976,0.431-3.237,0.431h-0.127
		c-7.009-0.056-8.231-4.656-8.336-7.395c-0.034-0.867-0.454-1.846-1.047-2.435c-2.536-2.518-3.932-5.862-3.932-9.418
		c0-7.334,5.968-13.303,13.304-13.303c7.335,0,13.302,5.967,13.302,13.303C38.318,19.568,36.928,22.913,34.406,25.439z"/>
	<path fill="#FFFFFF" d="M30.922,19.53c-5.823,4.763-11.568,0.195-11.811,0c-0.146-0.119-0.348-0.133-0.51-0.043
		c-0.163,0.093-0.251,0.275-0.225,0.459l1.85,12.561c0.037,0.247,0.263,0.42,0.515,0.381c0.247-0.037,0.418-0.266,0.382-0.513
		l-1.699-11.543c1.869,1.135,6.436,3.214,11.127,0.098l-2.157,11.425c-0.048,0.245,0.115,0.481,0.36,0.529
		c0.029,0.004,0.056,0.008,0.087,0.008c0.212,0,0.401-0.152,0.442-0.368l2.369-12.56c0.036-0.188-0.049-0.377-0.213-0.474
		C31.277,19.394,31.07,19.409,30.922,19.53z"/>
</g>
</svg>
