<?xml version="1.0" encoding="utf-8"?>
<!-- Generator: Adobe Illustrator 16.0.3, SVG Export Plug-In . SVG Version: 6.00 Build 0)  -->
<!DOCTYPE svg PUBLIC "-//W3C//DTD SVG 1.1//EN" "http://www.w3.org/Graphics/SVG/1.1/DTD/svg11.dtd">
<svg version="1.1"
	 id="svg3009" xmlns:dc="http://purl.org/dc/elements/1.1/" xmlns:cc="http://creativecommons.org/ns#" xmlns:rdf="http://www.w3.org/1999/02/22-rdf-syntax-ns#" xmlns:svg="http://www.w3.org/2000/svg" xmlns:sodipodi="http://sodipodi.sourceforge.net/DTD/sodipodi-0.dtd" xmlns:inkscape="http://www.inkscape.org/namespaces/inkscape" sodipodi:docname="Xbox_One_logo.svg" inkscape:version="0.48.4 r9939"
	 xmlns="http://www.w3.org/2000/svg" xmlns:xlink="http://www.w3.org/1999/xlink" x="0px" y="0px" width="175px" height="36px"
	 viewBox="0 0 175 36" enable-background="new 0 0 175 36" xml:space="preserve">
<sodipodi:namedview  inkscape:cy="13.184416" inkscape:cx="26.487741" inkscape:zoom="1.4142136" showgrid="false" id="namedview3031" guidetolerance="10" gridtolerance="10" objecttolerance="10" borderopacity="1" bordercolor="#666666" pagecolor="#ffffff" inkscape:current-layer="svg3009" inkscape:window-maximized="1" inkscape:window-y="-8" inkscape:window-x="-8" inkscape:window-height="838" inkscape:window-width="1600" inkscape:pageshadow="2" inkscape:pageopacity="0">
	</sodipodi:namedview>
<g id="g4201">
	<polygon id="polygon3015" fill="#6B6B6B" points="153.039,7.912 153.039,24.93 140.504,7.899 138.449,7.896 138.449,28.615 
		140.754,28.615 140.754,11.974 153.037,28.629 155.348,28.631 155.348,7.912 	"/>
	<path id="path3017" fill="#6B6B6B" d="M126.465,7.431c-5.826,0-9.898,4.456-9.898,10.835c0,6.389,4.072,10.844,9.898,10.844
		c5.82,0,9.879-4.455,9.879-10.844C136.344,11.887,132.285,7.431,126.465,7.431 M126.465,26.915c-4.438,0-7.549-3.557-7.549-8.649
		c0-5.088,3.111-8.645,7.549-8.645c4.432,0,7.523,3.557,7.523,8.645C133.988,23.358,130.896,26.915,126.465,26.915"/>
	<polygon id="polygon3019" fill="#6B6B6B" points="160.264,26.604 160.264,18.938 171.67,18.938 171.67,16.909 160.264,16.909 
		160.264,9.925 172.445,9.925 172.445,7.898 157.939,7.898 157.939,28.633 172.588,28.633 172.588,26.604 	"/>
	<polygon id="polygon3021" fill="#177D3E" points="110.072,28.65 103.449,19.658 96.829,28.65 94.101,28.65 102.066,17.786 
		94.793,7.912 97.52,7.912 103.449,15.966 109.373,7.912 112.098,7.912 104.828,17.786 112.797,28.65 	"/>
	<path id="path3023" fill="#177D3E" d="M73.607,18.57c-0.433-0.369-0.902-0.654-1.358-0.865c1.505-0.817,2.492-2.361,2.492-4.152
		c0-1.327-0.489-5.641-6.741-5.641h-8.421v8.94h-2.806c-0.365,0.474-1.19,1.613-1.506,2.081h4.312v9.715L68,28.649
		c4.562,0,7.396-2.317,7.396-6.054C75.396,20.963,74.779,19.574,73.607,18.57 M61.907,10.076H68c1.65,0,4.411,0.411,4.411,3.296
		c0,2.181-1.609,3.481-4.411,3.481h-6.093V10.076z M68,26.486h-6.093v-7.55H68c2.311,0,5.074,0.638,5.074,3.614
		C73.074,25.973,69.896,26.486,68,26.486"/>
	<path id="path3025" fill="#177D3E" d="M86.35,7.433c-5.824,0-9.896,4.456-9.896,10.835c0,6.389,4.071,10.842,9.896,10.842
		c5.82,0,9.879-4.453,9.879-10.842C96.229,11.889,92.17,7.433,86.35,7.433 M86.35,26.916c-4.438,0-7.546-3.557-7.546-8.648
		c0-5.088,3.108-8.644,7.546-8.644c4.431,0,7.523,3.556,7.523,8.644C93.873,23.359,90.78,26.916,86.35,26.916"/>
	<polygon id="polygon3027" fill="#177D3E" points="58.446,28.648 50.475,17.785 57.749,7.912 55.023,7.912 49.094,15.968 
		43.169,7.912 40.451,7.912 47.721,17.785 39.75,28.648 42.48,28.648 49.098,19.658 55.719,28.648 	"/>
	<g id="g3055" transform="translate(-1.2833333,0.93333333)">
		<g id="g3923" transform="matrix(-1,0,0,1,61.715049,-34.927083)">
		</g>
		<g id="g4049">
			<g id="g4160" transform="translate(-2.125,35.625)">
				
					<path id="path3033" sodipodi:ry="14.758333" sodipodi:rx="14.35" sodipodi:cy="17.391666" sodipodi:cx="23.333334" sodipodi:type="arc" fill="#666666" d="
					M39.561-17.981c0,9.212-7.553,16.679-16.87,16.679S5.821-8.769,5.821-17.981c0-9.211,7.553-16.679,16.87-16.679
					S39.561-27.193,39.561-17.981z"/>
				
					<radialGradient id="path3035_1_" cx="173.8458" cy="274.1975" r="14.3506" gradientTransform="matrix(0 1.6935 1.5038 0 -389.9908 -314.201)" gradientUnits="userSpaceOnUse">
					<stop  offset="0" style="stop-color:#FFFFFF"/>
					<stop  offset="1" style="stop-color:#FFFFFF;stop-opacity:0"/>
				</radialGradient>
				
					<path id="path3035" sodipodi:ry="14.758333" sodipodi:rx="14.35" sodipodi:cy="17.391666" sodipodi:cx="23.333334" sodipodi:type="arc" fill="url(#path3035_1_)" d="
					M39.561-17.981c0,9.212-7.553,16.679-16.87,16.679S5.821-8.769,5.821-17.981c0-9.211,7.553-16.679,16.87-16.679
					S39.561-27.193,39.561-17.981z"/>
				
					<radialGradient id="path3045_1_" cx="173.8458" cy="274.1975" r="14.3506" gradientTransform="matrix(0 1.6935 1.5038 0 -389.9908 -314.201)" gradientUnits="userSpaceOnUse">
					<stop  offset="0" style="stop-color:#FFFFFF"/>
					<stop  offset="1" style="stop-color:#FFFFFF;stop-opacity:0"/>
				</radialGradient>
				
					<path id="path3045" sodipodi:ry="14.758333" sodipodi:rx="14.35" sodipodi:cy="17.391666" sodipodi:cx="23.333334" sodipodi:type="arc" fill="url(#path3045_1_)" d="
					M39.561-17.981c0,9.212-7.553,16.679-16.87,16.679S5.821-8.769,5.821-17.981c0-9.211,7.553-16.679,16.87-16.679
					S39.561-27.193,39.561-17.981z"/>
				
					<radialGradient id="path3047_1_" cx="173.8458" cy="274.1975" r="14.3506" gradientTransform="matrix(0 1.6935 1.5038 0 -389.9908 -314.201)" gradientUnits="userSpaceOnUse">
					<stop  offset="0" style="stop-color:#FFFFFF"/>
					<stop  offset="1" style="stop-color:#FFFFFF;stop-opacity:0"/>
				</radialGradient>
				
					<path id="path3047" sodipodi:ry="14.758333" sodipodi:rx="14.35" sodipodi:cy="17.391666" sodipodi:cx="23.333334" sodipodi:type="arc" fill="url(#path3047_1_)" d="
					M39.561-17.981c0,9.212-7.553,16.679-16.87,16.679S5.821-8.769,5.821-17.981c0-9.211,7.553-16.679,16.87-16.679
					S39.561-27.193,39.561-17.981z"/>
				<g id="g4126" transform="translate(3.7995054e-7,0.05177686)">
					<g id="g4010" transform="matrix(1.0075011,0,0,1.0008426,-0.23709798,0.02715301)">
						<g id="g3951">
							<g id="g3917" transform="translate(1.334375,-34.927083)">
								<path id="path3900" sodipodi:nodetypes="ccccc" inkscape:connector-curvature="0" fill="#00A54D" d="M17.174,9.583
									c-1.848,2.256-9.593,11.425-8.906,17.625c0.478,0.61,1.005,1.181,1.562,1.719c-0.081-4.746,5.451-9.826,9.769-13.659
									L17.174,9.583z"/>
							</g>
							<g id="g3988" transform="translate(1.334375,-34.927083)">
								
									<linearGradient id="path3990_1_" gradientUnits="userSpaceOnUse" x1="147.7184" y1="-217.7589" x2="143.763" y2="-213.1185" gradientTransform="matrix(1.0075 0 0 -1.0008 -133.4615 -196.4352)">
									<stop  offset="0" style="stop-color:#97CA43"/>
									<stop  offset="1" style="stop-color:#97CA43;stop-opacity:0"/>
								</linearGradient>
								<path id="path3990" sodipodi:nodetypes="ccccc" inkscape:connector-curvature="0" fill="url(#path3990_1_)" d="
									M17.174,9.583c-1.848,2.256-9.593,11.425-8.906,17.625c0.478,0.61,1.005,1.181,1.562,1.719
									c-0.081-4.746,5.451-9.826,9.769-13.659L17.174,9.583z"/>
							</g>
							<g id="g3888" transform="translate(1.196189,-34.89572)">
								<g id="g3876">
									<path id="path3089" sodipodi:nodetypes="cccccccc" inkscape:connector-curvature="0" fill="#02A74D" d="M12.767,2.677
										c-0.966,0.584-1.863,1.272-2.687,2.031c2.656,0.508,5.32,2.862,6.781,4.812c1.272,2.002,1.963,3.837,2.861,5.732
										c0.608-0.519,1.227-1.046,1.896-1.587l-0.004-8.226c-1.979-1.238-5.25-2.867-8.817-2.761
										C12.791,2.682,12.775,2.672,12.767,2.677z"/>
									
										<linearGradient id="path4000_1_" gradientUnits="userSpaceOnUse" x1="147.8265" y1="-206.621" x2="151.4505" y2="-198.5776" gradientTransform="matrix(1.0075 0 0 -1.0008 -133.6002 -196.4668)">
										<stop  offset="0" style="stop-color:#97CA43"/>
										<stop  offset="1" style="stop-color:#97CA43;stop-opacity:0"/>
									</linearGradient>
									<path id="path4000" sodipodi:nodetypes="cccccccc" inkscape:connector-curvature="0" fill="url(#path4000_1_)" d="
										M12.767,2.677c-0.966,0.584-1.863,1.272-2.687,2.031c2.656,0.508,5.32,2.862,6.781,4.812
										c1.272,2.002,1.963,3.837,2.861,5.732c0.608-0.519,1.227-1.046,1.896-1.587l-0.004-8.226
										c-1.979-1.238-5.25-2.867-8.817-2.761C12.791,2.682,12.775,2.672,12.767,2.677z"/>
								</g>
							</g>
						</g>
					</g>
					<g id="g4021" transform="matrix(-1.0041673,0,0,1.0016853,63.252358,0.05430602)">
						<g id="g4023">
							<g id="g4025" transform="translate(1.334375,-34.927083)">
								<path id="path4027" sodipodi:nodetypes="ccccc" inkscape:connector-curvature="0" fill="#00A54D" d="M34.79,9.583
									c-1.848,2.256-9.593,11.426-8.906,17.625c0.478,0.609,1.005,1.181,1.562,1.719c-0.081-4.746,5.451-9.825,9.769-13.659
									L34.79,9.583z"/>
							</g>
							<g id="g4029" transform="translate(1.334375,-34.927083)">
								
									<linearGradient id="path4031_1_" gradientUnits="userSpaceOnUse" x1="326.4747" y1="-217.2562" x2="322.5193" y2="-212.6158" gradientTransform="matrix(-1.0042 0 0 -1.0017 360.8164 -196.1166)">
									<stop  offset="0" style="stop-color:#97CA43"/>
									<stop  offset="1" style="stop-color:#97CA43;stop-opacity:0"/>
								</linearGradient>
								<path id="path4031" sodipodi:nodetypes="ccccc" inkscape:connector-curvature="0" fill="url(#path4031_1_)" d="M34.79,9.583
									c-1.848,2.256-9.593,11.426-8.906,17.625c0.478,0.609,1.005,1.181,1.562,1.719c-0.081-4.746,5.451-9.825,9.769-13.659
									L34.79,9.583z"/>
							</g>
							<g id="g4033" transform="translate(1.196189,-34.89572)">
								<g id="g4035">
									<path id="path4037" sodipodi:nodetypes="cccccccc" inkscape:connector-curvature="0" fill="#02A74D" d="M30.383,2.677
										c-0.966,0.585-1.863,1.272-2.688,2.031c2.656,0.508,5.321,2.862,6.781,4.812c1.272,2.002,1.963,3.837,2.862,5.732
										c0.608-0.519,1.226-1.047,1.896-1.587l-0.004-8.227c-1.979-1.238-5.25-2.867-8.816-2.761
										C30.407,2.682,30.391,2.672,30.383,2.677z"/>
									
										<linearGradient id="path4039_1_" gradientUnits="userSpaceOnUse" x1="326.61" y1="-205.7743" x2="329.7058" y2="-200.7311" gradientTransform="matrix(-1.0042 0 0 -1.0017 360.9553 -196.1482)">
										<stop  offset="0" style="stop-color:#97CA43"/>
										<stop  offset="1" style="stop-color:#97CA43;stop-opacity:0"/>
									</linearGradient>
									<path id="path4039" sodipodi:nodetypes="cccccccc" inkscape:connector-curvature="0" fill="url(#path4039_1_)" d="
										M30.383,2.677c-0.966,0.585-1.863,1.272-2.688,2.031c2.656,0.508,5.321,2.862,6.781,4.812
										c1.272,2.002,1.963,3.837,2.862,5.732c0.608-0.519,1.226-1.047,1.896-1.587l-0.004-8.227
										c-1.979-1.238-5.25-2.867-8.816-2.761C30.407,2.682,30.391,2.672,30.383,2.677z"/>
								</g>
							</g>
						</g>
					</g>
				</g>
			</g>
		</g>
	</g>
</g>
</svg>
