<?xml version="1.0" encoding="utf-8"?>
<!-- Generator: Adobe Illustrator 16.0.3, SVG Export Plug-In . SVG Version: 6.00 Build 0)  -->
<!DOCTYPE svg PUBLIC "-//W3C//DTD SVG 1.1//EN" "http://www.w3.org/Graphics/SVG/1.1/DTD/svg11.dtd">
<svg version="1.1" id="Capa_1" xmlns="http://www.w3.org/2000/svg" xmlns:xlink="http://www.w3.org/1999/xlink" x="0px" y="0px"
	 width="50px" height="50px" viewBox="475 475 50 50" enable-background="new 475 475 50 50" xml:space="preserve">
<path fill="#FFFFFF" d="M500.047,475.05c-12.492,0.006-22.622,10.135-22.622,22.634v10.663c0,0.563,0.264,1.092,0.714,1.434
	l9.728,7.384v6.087c0,0.995,0.804,1.8,1.8,1.8h1.445c0.995,0,1.799-0.805,1.799-1.8v-2.471c0-0.63,0.511-1.14,1.14-1.14l0,0
	c0.629,0,1.14,0.51,1.14,1.14v2.471c0,0.995,0.803,1.8,1.799,1.8h0.06c0.995,0,1.799-0.805,1.799-1.8v-2.471
	c0-0.63,0.51-1.14,1.14-1.14h0.12c0.63,0,1.139,0.51,1.139,1.14v2.471c0,0.995,0.804,1.8,1.799,1.8h0.061
	c0.995,0,1.799-0.805,1.799-1.8v-2.471c0-0.63,0.511-1.14,1.14-1.14l0,0c0.63,0,1.141,0.51,1.141,1.14v2.471
	c0,0.995,0.804,1.8,1.799,1.8h1.451c0.995,0,1.799-0.805,1.799-1.8v-6.094l9.728-7.382c0.451-0.343,0.715-0.869,0.715-1.435v-10.663
	C522.668,485.186,512.54,475.056,500.047,475.05z M490.589,508.521c-3.442,0-6.237-2.795-6.237-6.237s2.795-6.237,6.237-6.237
	c3.443,0,6.238,2.795,6.238,6.237C496.827,505.733,494.032,508.521,490.589,508.521z M501.821,513.109h-3.544
	c-0.821,0-1.343-0.882-0.947-1.601l1.775-3.221c0.408-0.745,1.48-0.745,1.889,0l1.774,3.221
	C503.158,512.228,502.638,513.109,501.821,513.109z M509.505,508.521c-3.442,0-6.237-2.795-6.237-6.237s2.795-6.237,6.237-6.237
	s6.237,2.795,6.237,6.237C515.742,505.733,512.953,508.521,509.505,508.521z"/>
</svg>
